<?xml version="1.0" encoding="UTF-8"?>
<svg xmlns="http://www.w3.org/2000/svg" width="1600" height="900" viewBox="0 0 1600 900" role="img" aria-label="dead-channel-protocol">
  <defs>
    <linearGradient id="bg-dead-channel-protocol" x1="0%" y1="0%" x2="100%" y2="100%">
      <stop offset="0%" stop-color="#1d3d4f" />
      <stop offset="58%" stop-color="#241b30" />
      <stop offset="100%" stop-color="#080b12" />
    </linearGradient>
    <radialGradient id="flare-dead-channel-protocol" cx="72%" cy="20%" r="55%">
      <stop offset="0%" stop-color="#7ccae0" stop-opacity="0.48" />
      <stop offset="100%" stop-color="#7ccae0" stop-opacity="0" />
    </radialGradient>
    <filter id="grain-dead-channel-protocol">
      <feTurbulence type="fractalNoise" baseFrequency="0.95" numOctaves="2" stitchTiles="stitch" />
      <feColorMatrix type="saturate" values="0" />
      <feComponentTransfer>
        <feFuncA type="table" tableValues="0 0.08" />
      </feComponentTransfer>
    </filter>
    <filter id="blur-dead-channel-protocol">
      <feGaussianBlur stdDeviation="42" />
    </filter>
  </defs>
  <rect width="1600" height="900" fill="url(#bg-dead-channel-protocol)" />
  <rect width="1600" height="900" fill="url(#flare-dead-channel-protocol)" />
  <g opacity="0.4">
    <path d="M-60,239 C180,119 480,419 760,169 C1030,-51 1310,429 1680,209" fill="none" stroke="#7ccae0" stroke-opacity="0.45" stroke-width="2.5" />
    <path d="M-80,499 C220,349 530,629 830,409 C1120,219 1390,609 1690,429" fill="none" stroke="#7ccae0" stroke-opacity="0.25" stroke-width="1.6" />
    <path d="M-50,819 C220,679 540,914 860,709 C1160,619 1400,889 1680,774" fill="none" stroke="#f4e2bd" stroke-opacity="0.2" stroke-width="1.2" />
  </g>
  <g filter="url(#blur-dead-channel-protocol)" opacity="0.3">
    <ellipse cx="189" cy="89" rx="220" ry="130" fill="#7ccae0" />
    <ellipse cx="1280" cy="720" rx="250" ry="140" fill="#2b5a71" />
  </g>
  <g filter="url(#grain-dead-channel-protocol)">
    <rect width="1600" height="900" fill="#fff" />
  </g>
  <text x="90" y="756" fill="#f5e9d2" fill-opacity="0.82" font-size="36" letter-spacing="0.08em" font-family="Georgia,serif">DEAD CHANNEL PROTOCOL</text>
  <text x="90" y="804" fill="#d8c6a4" fill-opacity="0.75" font-size="22" font-family="Georgia,serif">smart-city transit hub with glitching signage</text>
</svg>
