<?xml version="1.0" encoding="UTF-8"?>
<svg xmlns="http://www.w3.org/2000/svg" width="1600" height="900" viewBox="0 0 1600 900" role="img" aria-label="signal-from-kharon-9">
  <defs>
    <linearGradient id="bg-signal-from-kharon-9" x1="0%" y1="0%" x2="100%" y2="100%">
      <stop offset="0%" stop-color="#1d2a52" />
      <stop offset="58%" stop-color="#1a1535" />
      <stop offset="100%" stop-color="#080b12" />
    </linearGradient>
    <radialGradient id="flare-signal-from-kharon-9" cx="72%" cy="20%" r="55%">
      <stop offset="0%" stop-color="#91b7ff" stop-opacity="0.48" />
      <stop offset="100%" stop-color="#91b7ff" stop-opacity="0" />
    </radialGradient>
    <filter id="grain-signal-from-kharon-9">
      <feTurbulence type="fractalNoise" baseFrequency="0.95" numOctaves="2" stitchTiles="stitch" />
      <feColorMatrix type="saturate" values="0" />
      <feComponentTransfer>
        <feFuncA type="table" tableValues="0 0.08" />
      </feComponentTransfer>
    </filter>
    <filter id="blur-signal-from-kharon-9">
      <feGaussianBlur stdDeviation="42" />
    </filter>
  </defs>
  <rect width="1600" height="900" fill="url(#bg-signal-from-kharon-9)" />
  <rect width="1600" height="900" fill="url(#flare-signal-from-kharon-9)" />
  <g opacity="0.4">
    <path d="M-60,229 C180,109 480,409 760,159 C1030,-61 1310,419 1680,199" fill="none" stroke="#91b7ff" stroke-opacity="0.45" stroke-width="2.5" />
    <path d="M-80,549 C220,399 530,679 830,459 C1120,269 1390,659 1690,479" fill="none" stroke="#91b7ff" stroke-opacity="0.25" stroke-width="1.6" />
    <path d="M-50,769 C220,629 540,864 860,659 C1160,569 1400,839 1680,724" fill="none" stroke="#f4e2bd" stroke-opacity="0.2" stroke-width="1.2" />
  </g>
  <g filter="url(#blur-signal-from-kharon-9)" opacity="0.3">
    <ellipse cx="149" cy="79" rx="220" ry="130" fill="#91b7ff" />
    <ellipse cx="1280" cy="720" rx="250" ry="140" fill="#2b5a71" />
  </g>
  <g filter="url(#grain-signal-from-kharon-9)">
    <rect width="1600" height="900" fill="#fff" />
  </g>
  <text x="90" y="756" fill="#f5e9d2" fill-opacity="0.82" font-size="36" letter-spacing="0.08em" font-family="Georgia,serif">SIGNAL FROM KHARON 9</text>
  <text x="90" y="804" fill="#d8c6a4" fill-opacity="0.75" font-size="22" font-family="Georgia,serif">observatory dish array under aurora static</text>
</svg>
