<?xml version="1.0" encoding="UTF-8"?>
<svg xmlns="http://www.w3.org/2000/svg" width="1600" height="900" viewBox="0 0 1600 900" role="img" aria-label="onboarding">
  <defs>
    <linearGradient id="bg-onboarding" x1="0%" y1="0%" x2="100%" y2="100%">
      <stop offset="0%" stop-color="#1e304f" />
      <stop offset="58%" stop-color="#33212f" />
      <stop offset="100%" stop-color="#080b12" />
    </linearGradient>
    <radialGradient id="flare-onboarding" cx="72%" cy="20%" r="55%">
      <stop offset="0%" stop-color="#cfb07a" stop-opacity="0.48" />
      <stop offset="100%" stop-color="#cfb07a" stop-opacity="0" />
    </radialGradient>
    <filter id="grain-onboarding">
      <feTurbulence type="fractalNoise" baseFrequency="0.95" numOctaves="2" stitchTiles="stitch" />
      <feColorMatrix type="saturate" values="0" />
      <feComponentTransfer>
        <feFuncA type="table" tableValues="0 0.08" />
      </feComponentTransfer>
    </filter>
    <filter id="blur-onboarding">
      <feGaussianBlur stdDeviation="42" />
    </filter>
  </defs>
  <rect width="1600" height="900" fill="url(#bg-onboarding)" />
  <rect width="1600" height="900" fill="url(#flare-onboarding)" />
  <g opacity="0.4">
    <path d="M-60,279 C180,159 480,459 760,209 C1030,-11 1310,469 1680,249" fill="none" stroke="#cfb07a" stroke-opacity="0.45" stroke-width="2.5" />
    <path d="M-80,539 C220,389 530,669 830,449 C1120,259 1390,649 1690,469" fill="none" stroke="#cfb07a" stroke-opacity="0.25" stroke-width="1.6" />
    <path d="M-50,759 C220,619 540,854 860,649 C1160,559 1400,829 1680,714" fill="none" stroke="#f4e2bd" stroke-opacity="0.2" stroke-width="1.2" />
  </g>
  <g filter="url(#blur-onboarding)" opacity="0.3">
    <ellipse cx="149" cy="84" rx="220" ry="130" fill="#cfb07a" />
    <ellipse cx="1280" cy="720" rx="250" ry="140" fill="#2b5a71" />
  </g>
  <g filter="url(#grain-onboarding)">
    <rect width="1600" height="900" fill="#fff" />
  </g>
  <text x="90" y="756" fill="#f5e9d2" fill-opacity="0.82" font-size="36" letter-spacing="0.08em" font-family="Georgia,serif">ONBOARDING</text>
  <text x="90" y="804" fill="#d8c6a4" fill-opacity="0.75" font-size="22" font-family="Georgia,serif">briefing desk with legal dossier and invitation cards</text>
</svg>
